<?xml version="1.0" standalone="no"?>
<!DOCTYPE svg PUBLIC "-//W3C//DTD SVG 20010904//EN"
 "http://www.w3.org/TR/2001/REC-SVG-20010904/DTD/svg10.dtd">
<svg version="1.0" xmlns="http://www.w3.org/2000/svg"
 width="22.336" height="26.084" viewBox="0 0 250 37"
 >
<metadata>
Created by potrace 1.15, written by Peter Selinger 2001-2017
</metadata>
<g transform="translate(0.000000,1280.000000) scale(0.100000,-0.100000)"
fill="#000000" stroke="none">
<path d="M3047 12782 c-38 -41 -27 -56 228 -312 l245 -246 0 -1548 0 -1548
-53 -86 c-260 -421 -1263 -2306 -2289 -4302 -650 -1264 -977 -1915 -1027
-2045 -180 -466 -198 -959 -54 -1410 126 -394 402 -788 683 -977 218 -145 471
-237 789 -285 109 -17 313 -18 3321 -18 3447 0 3273 -3 3520 52 399 87 722
279 931 555 264 347 405 688 448 1090 30 273 -7 603 -100 880 -88 264 -627
1417 -1579 3378 -795 1637 -1018 2107 -1386 2915 l-114 249 0 1550 0 1550 245
246 c172 172 245 253 245 268 0 12 -9 31 -20 42 -20 20 -33 20 -2018 20 -1924
0 -2000 -1 -2015 -18z"/>
</g>
</svg>
